<?xml version="1.0" encoding="UTF-8" standalone="no"?>
<svg width="60px" height="34px" viewBox="0 0 60 34" version="1.1" xmlns="http://www.w3.org/2000/svg" xmlns:xlink="http://www.w3.org/1999/xlink" xmlns:sketch="http://www.bohemiancoding.com/sketch/ns">
    <!-- Generator: Sketch 3.5.1 (25234) - http://www.bohemiancoding.com/sketch -->
    <title>logo copy</title>
    <desc>Created with Sketch.</desc>
    <defs>
        <path id="path-1" d="M0,0.100193007 L31.2824798,0.100193007 L31.2824798,30.5128205 L0,30.5128205 L0,0.100193007 Z"></path>
    </defs>
    <g id="Page-1" stroke="none" stroke-width="1" fill="none" fill-rule="evenodd" sketch:type="MSPage">
        <g id="UI-kit" sketch:type="MSArtboardGroup" transform="translate(-126.000000, -177.000000)">
            <g id="logo-copy" sketch:type="MSLayerGroup" transform="translate(126.000000, 177.000000)">
                <g id="Page-1" transform="translate(0.000000, 3.487179)">
                    <path d="M9.29141185,9.66296643 L13.88204,28.3110709 C14.0129508,28.8458774 14.5536501,29.1743063 15.0874827,29.0432676 L27.6396371,25.7145963 C28.1734698,25.5834466 28.5013006,25.0417608 28.3703897,24.5069543 L23.6340098,6.22333939 L25.1006097,5.79105594 L29.5567829,24.0033263 C29.9492938,25.6077459 28.9658014,27.2330252 27.3643036,27.6262522 L15.9619936,30.4263305 C14.3604958,30.8195576 12.7381763,29.8342709 12.3456653,28.2298513 L7.88949212,10.0175809 L9.29141185,9.66296643 Z" id="Fill-1" fill="#4C4C4C" sketch:type="MSShapeGroup"></path>
                    <path d="M26.1997954,25.3447143 L16.1112452,28.1253754 C15.2150266,28.3454006 14.3103908,27.7959479 14.0907663,26.8980943 L10.9157914,13.8793278 L24.8707515,13.8793278 L27.4248415,23.3204383 C27.644466,24.2182919 27.0960139,25.1245782 26.1997954,25.3447143" id="Fill-3" fill="#EFB135" sketch:type="MSShapeGroup"></path>
                    <path d="M21.615015,1.44902611 C20.9916935,1.60214499 20.4378145,1.87010303 19.985275,2.21095897 C19.3146617,1.70000793 18.3359316,1.45490676 17.2897527,1.57795664 C16.5097147,0.866286713 15.1948473,0.569480186 13.8409947,0.901903497 C12.343716,1.26961072 11.2428247,2.29750443 11.001714,3.4179352 C10.5437477,3.63962471 10.1473604,3.92744382 9.83293075,4.2572042 C9.66513897,4.27950629 9.49579664,4.31090676 9.32578978,4.35262611 C7.40986235,4.82318928 6.14295132,6.37457203 6.49603396,7.81788392 C6.63923844,8.40295338 7.02676547,8.8803958 7.56447445,9.21004522 C7.44641105,9.58796037 7.42437108,9.98063263 7.51862244,10.365649 C7.87170508,11.8089608 9.71121249,12.5975231 11.6271399,12.1270709 C12.379711,11.9422186 13.0312747,11.5901562 13.5246822,11.1437814 L13.8417699,12.4400769 C14.0456674,13.2732434 14.8851801,13.7831958 15.71694,13.5789263 C16.5485892,13.3746569 17.057613,12.5336126 16.8537155,11.7003352 L16.1286114,8.73681911 C16.1185328,8.69554359 16.1056854,8.65571049 16.0925057,8.6160993 C16.647603,8.70652821 17.2569696,8.68822051 17.8755287,8.53632214 C17.9213807,8.52511562 17.9664575,8.51268858 18.0115342,8.50015058 C18.7997679,9.15956037 20.0711091,9.42518834 21.3784452,9.10408252 C23.0945731,8.68267273 24.2889405,7.3940331 24.2659037,6.09263357 C25.3684563,5.38695524 25.9828068,4.26985315 25.7235325,3.21044802 C25.3704499,1.76713613 23.5309425,0.978573893 21.615015,1.44902611" id="Fill-5" fill="#FFFFFF" sketch:type="MSShapeGroup"></path>
                    <g id="Group-9">
                        <mask id="mask-2" sketch:name="Clip 8" fill="white">
                            <use xlink:href="#path-1"></use>
                        </mask>
                        <g id="Clip-8"></g>
                        <path d="M13.9049881,9.90265296 L14.4872201,12.2814324 C14.5847941,12.6798744 14.9380982,12.9582623 15.3465577,12.9582623 C15.4173293,12.9582623 15.4887654,12.9494968 15.5586509,12.9324096 C15.7885755,12.8759331 15.9827266,12.7331331 16.1053309,12.5304171 C16.2281567,12.32759 16.2647054,12.0891462 16.2083318,11.8589131 L15.4832277,8.89539702 C15.477247,8.8708758 15.4692727,8.84801893 15.4617415,8.8250511 L15.1175191,7.78262219 L16.1993608,7.95893082 C16.6855693,8.03815319 17.2095449,8.01429772 17.7173504,7.88969445 C17.7568894,7.88004131 17.7958747,7.8692786 17.83486,7.85840494 L18.1704435,7.76575692 L18.4374706,7.98922172 C18.881925,8.36103431 19.5503233,8.57429119 20.2713296,8.57440214 L20.2715511,8.57440214 C20.5852054,8.57440214 20.9043974,8.53512382 21.2202669,8.45756578 C22.5956057,8.1198166 23.619191,7.10812242 23.6014704,6.10452802 L23.5948252,5.7320497 L23.9080365,5.53155273 C24.8006002,4.96046368 25.2597848,4.11165249 25.0781488,3.36891497 C24.8777955,2.55028373 23.909144,1.97863991 22.7224186,1.97863991 C22.4085428,1.97863991 22.08924,2.01791823 21.7732598,2.09558723 C21.2595844,2.22174387 20.7794673,2.44565249 20.3846306,2.74312476 L19.9830378,3.04559002 L19.5829956,2.74079469 C19.1357724,2.4000497 18.5095712,2.21231263 17.8199082,2.21231263 C17.6707231,2.21231263 17.5184368,2.22130005 17.3672581,2.23916392 L17.0663404,2.27455879 L16.8422857,2.07017837 C16.3976098,1.66441333 15.7070608,1.43162825 14.9475123,1.43162825 C14.6339687,1.43162825 14.3148874,1.47101753 13.9992395,1.54846462 C12.7895881,1.84560401 11.845967,2.65325063 11.6512621,3.55831636 L11.5829271,3.87609352 L11.2907589,4.0174511 C10.913975,4.19986228 10.5759549,4.44174573 10.3134687,4.71713781 L10.1519899,4.88634527 L9.92029323,4.91719096 C9.7722156,4.93683012 9.62546701,4.96445809 9.4842561,4.99929818 C8.69646538,5.19269399 8.01821001,5.59856998 7.57442013,6.14203105 C7.17537472,6.63068 7.02164865,7.16948093 7.1414841,7.6593504 C7.26309161,8.15621007 7.62713886,8.46799562 7.91133274,8.64219608 L8.35346132,8.91314993 L8.19873846,9.40878909 C8.11312589,9.6828497 8.10149676,9.95136252 8.16396182,10.2072264 C8.36431517,11.0257467 9.33296662,11.5973905 10.519692,11.5973905 C10.8335678,11.5973905 11.1528706,11.5581122 11.4688508,11.4805541 C12.0904003,11.3278791 12.6473804,11.0406147 13.0792089,10.6497178 L13.9049881,9.90265296 Z M15.3465577,14.2897308 C14.3241907,14.2897308 13.4400443,13.5942604 13.196497,12.5985439 L13.1117705,12.2528059 C12.7048616,12.4813746 12.2577491,12.6575723 11.785274,12.773632 C11.3658499,12.8767098 10.9400021,12.928859 10.519692,12.928859 C8.69048468,12.928859 7.22510311,11.9624348 6.87323875,10.5242269 C6.79061653,10.1863667 6.77322821,9.84207114 6.82118454,9.49555646 C6.32833078,9.08845995 5.99606983,8.57051869 5.85065028,7.97646182 C5.62892147,7.07028653 5.87579136,6.11928513 6.5457402,5.29898956 C7.17083382,4.53339515 8.10193977,3.96785389 9.16761141,3.70610937 C9.28246295,3.67781566 9.39986182,3.6531835 9.51870049,3.63232382 C9.78982543,3.37701473 10.0976098,3.15255133 10.4378451,2.96181846 C10.8559401,1.68926741 12.0933906,0.645617995 13.6827056,0.25538676 C14.1019081,0.15241986 14.5274237,0.10015972 14.9475123,0.10015972 C15.9314477,0.10015972 16.8263372,0.378991422 17.502599,0.890719161 C18.4113327,0.83435366 19.2807489,1.02186881 19.9783862,1.41298769 C20.4267169,1.14025855 20.9300923,0.931772774 21.4568367,0.802398415 C21.8762607,0.699431515 22.3019978,0.647171375 22.7224186,0.647171375 C24.551626,0.647171375 26.0168968,1.61359562 26.3688719,3.0519145 C26.6652487,4.26266322 26.0970824,5.5669476 24.9117968,6.45414946 C24.7376921,7.94705855 23.3794093,9.29816625 21.53669,9.75064364 C21.1173767,9.85372149 20.6916397,9.90587068 20.2715511,9.90587068 L20.2713296,9.90587068 C19.3633711,9.90575972 18.5226402,9.66476392 17.8653172,9.2213849 C17.5646211,9.28518443 17.2610453,9.3225765 16.9586878,9.33333921 L17.4990549,11.5418017 C17.6400443,12.1175509 17.5485618,12.7138269 17.2418849,13.2206725 C16.9350973,13.7276292 16.4497748,14.0843518 15.8750741,14.2254875 C15.7017446,14.2680945 15.5238743,14.2897308 15.3465577,14.2897308 L15.3465577,14.2897308 Z" id="Fill-7" fill="#4C4C4C" sketch:type="MSShapeGroup" mask="url(#mask-2)"></path>
                    </g>
                    <path d="M18.4318222,7.31443347 C18.4318222,7.31443347 19.5291693,8.18732205 20.2953631,8.05628336 C21.0614461,7.92535562 22.5999251,7.80452485 23.2323285,6.07849781 L23.2147186,5.5401407 C23.2147186,5.5401407 24.0960962,5.18086611 24.3940235,4.65083068 C24.6918401,4.12068429 24.8816719,3.7313407 24.6620474,3.29972298 C24.4424229,2.86810527 23.6195232,2.18484 22.7661663,2.30877753 C21.9126987,2.4326041 24.4282464,3.04297147 24.0891187,3.7546414 C23.7501018,4.46620037 23.1767301,5.03540317 22.8073667,5.04039618 C22.8073667,5.04039618 23.1161479,6.53541343 21.3944824,7.07243907 C19.6728168,7.60946471 19.3978155,7.53412578 18.4318222,7.31443347" id="Fill-10" fill="#E0E0E0" sketch:type="MSShapeGroup"></path>
                    <path d="M8.8344312,8.98582592 C8.8344312,8.98582592 8.58822583,9.96023897 8.8752993,10.3180711 C9.16248352,10.6760143 9.59674859,11.1691014 10.6515664,11.0529308 C11.7063842,10.9366492 12.4939534,10.5433112 12.6563182,10.2749094 C12.8187938,10.0066185 11.0301224,10.5029234 10.4061363,10.3991798 C9.78203945,10.2953252 8.96024735,9.38338023 8.8344312,8.98582592" id="Fill-12" fill="#E0E0E0" sketch:type="MSShapeGroup"></path>
                    <path d="M19.7993418,16.6319282 C19.8539434,16.8551711 19.7176056,17.0804112 19.49488,17.1351124 C19.2720437,17.1898135 19.0472138,17.053227 18.9926122,16.8300951 C18.9380107,16.6068522 19.0743484,16.3816121 19.297074,16.326911 C19.5199103,16.2722098 19.7447403,16.4086853 19.7993418,16.6319282" id="Fill-14" fill="#FFFFFF" sketch:type="MSShapeGroup"></path>
                    <path d="M13.3735921,14.9540559 C13.4281937,15.1772988 13.2918559,15.4025389 13.0691303,15.4572401 C12.846294,15.5119413 12.6214641,15.3753548 12.5668625,15.1522228 C12.512261,14.92898 12.6485987,14.7037399 12.8713243,14.6490387 C13.0941606,14.5943375 13.3189906,14.7308131 13.3735921,14.9540559" id="Fill-16" fill="#FFFFFF" sketch:type="MSShapeGroup"></path>
                    <path id="Fill-18" fill="#FFFFFF" sketch:type="MSShapeGroup" d="M19.0752787,13.4396436 C19.1044069,13.5586991 19.0316418,13.6788641 18.9129139,13.7080455 C18.7940752,13.7372269 18.674129,13.664329 18.6450008,13.5452735 C18.6158726,13.426329 18.6886377,13.3061639 18.8073656,13.2769826 C18.9262043,13.2478012 19.0461505,13.3205882 19.0752787,13.4396436"></path>
                    <path id="Fill-20" fill="#FFFFFF" sketch:type="MSShapeGroup" d="M17.6381504,14.9064116 C17.6672786,15.025467 17.5945135,15.1456321 17.4757856,15.1748134 C17.3569469,15.2039948 17.2370007,15.1310969 17.2078725,15.0120414 C17.1787443,14.8929859 17.2515094,14.7729318 17.3702373,14.7437505 C17.489076,14.7145691 17.6090222,14.7873561 17.6381504,14.9064116"></path>
                    <path id="Fill-22" fill="#FFFFFF" sketch:type="MSShapeGroup" d="M22.5529213,16.5840508 C22.5820495,16.7031063 22.5092843,16.8232713 22.3905564,16.8524527 C22.2717177,16.881634 22.1517715,16.8087361 22.1226433,16.6896807 C22.0935151,16.5707361 22.1662803,16.4505711 22.2850082,16.4213897 C22.4038468,16.3922084 22.523793,16.4649953 22.5529213,16.5840508"></path>
                    <path id="Fill-24" fill="#FFFFFF" sketch:type="MSShapeGroup" d="M22.2231633,19.6638485 C22.2522915,19.782904 22.1795264,19.903069 22.0607985,19.9322503 C21.9419598,19.9614317 21.8220136,19.8885338 21.7928854,19.7694783 C21.7637572,19.6505338 21.8365223,19.5303688 21.9552503,19.5011874 C22.0740889,19.4720061 22.1940351,19.544793 22.2231633,19.6638485"></path>
                    <path id="Fill-26" fill="#FFFFFF" sketch:type="MSShapeGroup" d="M23.7238864,20.4377202 C23.7530146,20.5567757 23.6802495,20.6769407 23.5615215,20.7061221 C23.4426829,20.7353034 23.3227367,20.6624055 23.2936085,20.54335 C23.2644802,20.4242945 23.3372454,20.3042405 23.4559733,20.2750591 C23.574812,20.2458778 23.6947582,20.3186647 23.7238864,20.4377202"></path>
                    <path d="M29.066111,17.8406242 L27.9451733,18.1159054 L27.5009404,16.300448 L28.6218781,16.0251669 C29.180298,15.8880256 29.5231913,15.3213748 29.3862998,14.7620471 L28.1419825,9.67628112 C28.005091,9.11695338 27.4394721,8.77332354 26.8811629,8.9104648 L25.7601144,9.18574592 L25.3159923,7.37028858 L26.43693,7.09500746 C27.9945694,6.71254312 29.5723659,7.6708676 29.9541337,9.23134872 L31.198451,14.3170037 C31.5803296,15.8774848 30.6237503,17.4581599 29.066111,17.8406242" id="Fill-30" fill="#4C4C4C" sketch:type="MSShapeGroup"></path>
                    <path d="M5.0089336,5.66856084 C5.0089336,6.44480699 3.90139708,7.36984476 4.7874263,8.92322471 C4.01259375,8.92322471 2.20321133,6.44480699 2.20321133,5.66856084 C2.20321133,4.89231469 2.83129529,4.26308485 3.60601709,4.26308485 C4.38084964,4.26308485 5.0089336,4.89231469 5.0089336,5.66856084" id="Fill-32" fill="#EFB135" sketch:type="MSShapeGroup"></path>
                    <path d="M2.39487052,13.2707912 C2.94276884,12.7218933 2.81252255,11.2832416 4.53551711,10.8124565 C3.9876188,10.2635586 0.958727915,10.7343437 0.410940351,11.2832416 C-0.136957966,11.8320285 -0.136957966,12.7218933 0.410940351,13.2707912 C0.958727915,13.8196891 1.84697221,13.8196891 2.39487052,13.2707912" id="Fill-34" fill="#EFB135" sketch:type="MSShapeGroup"></path>
                </g>
                <g id="$-copy" transform="translate(47.462687, 3.589744)" sketch:type="MSShapeGroup">
                    <ellipse id="Oval-1-Copy" fill="#EFB135" cx="2.68656716" cy="3.48717949" rx="2.68656716" ry="2.69230769"></ellipse>
                    <path d="M4.38491138,3.79186101 C4.38491138,4.12651753 4.18085559,4.29384328 3.77273787,4.29384328 L1.13427006,4.29384328 L1.13427006,3.38170476 L3.42379897,3.38170476 L3.42379897,3.13071362 L1.58115672,3.13071362 C1.38117904,3.13071362 1.24854277,3.1123486 1.18324394,3.075618 C1.07305215,3.01440035 1.01795709,2.88788575 1.01795709,2.69607043 L1.01795709,2.04104478 C1.01795709,1.69006354 1.19752619,1.51457556 1.55666978,1.51457556 L3.92578125,1.51457556 L3.92578125,2.30427938 L1.90560868,2.30427938 L1.90560868,2.64709655 L3.78498134,2.64709655 C4.1849367,2.64709655 4.38491138,2.82462509 4.38491138,3.1796875 L4.38491138,3.79186101 Z" id="s" fill="#FFFFFF"></path>
                </g>
                <g id="$-copy-2" transform="translate(35.820896, 5.384615)" sketch:type="MSShapeGroup">
                    <ellipse id="Oval-1-Copy" fill="#EFB135" cx="2.68656716" cy="3.48717949" rx="2.68656716" ry="2.69230769"></ellipse>
                    <path d="M4.38491138,3.79186101 C4.38491138,4.12651753 4.18085559,4.29384328 3.77273787,4.29384328 L1.13427006,4.29384328 L1.13427006,3.38170476 L3.42379897,3.38170476 L3.42379897,3.13071362 L1.58115672,3.13071362 C1.38117904,3.13071362 1.24854277,3.1123486 1.18324394,3.075618 C1.07305215,3.01440035 1.01795709,2.88788575 1.01795709,2.69607043 L1.01795709,2.04104478 C1.01795709,1.69006354 1.19752619,1.51457556 1.55666978,1.51457556 L3.92578125,1.51457556 L3.92578125,2.30427938 L1.90560868,2.30427938 L1.90560868,2.64709655 L3.78498134,2.64709655 C4.1849367,2.64709655 4.38491138,2.82462509 4.38491138,3.1796875 L4.38491138,3.79186101 Z" id="s" fill="#FFFFFF"></path>
                </g>
                <g id="$" transform="translate(41.194030, 0.000000)" sketch:type="MSShapeGroup">
                    <ellipse id="Oval-1-Copy" fill="#EFB135" cx="2.68656716" cy="3.48717949" rx="2.68656716" ry="2.69230769"></ellipse>
                    <path d="M4.38491138,3.79186101 C4.38491138,4.12651753 4.18085559,4.29384328 3.77273787,4.29384328 L1.13427006,4.29384328 L1.13427006,3.38170476 L3.42379897,3.38170476 L3.42379897,3.13071362 L1.58115672,3.13071362 C1.38117904,3.13071362 1.24854277,3.1123486 1.18324394,3.075618 C1.07305215,3.01440035 1.01795709,2.88788575 1.01795709,2.69607043 L1.01795709,2.04104478 C1.01795709,1.69006354 1.19752619,1.51457556 1.55666978,1.51457556 L3.92578125,1.51457556 L3.92578125,2.30427938 L1.90560868,2.30427938 L1.90560868,2.64709655 L3.78498134,2.64709655 C4.1849367,2.64709655 4.38491138,2.82462509 4.38491138,3.1796875 L4.38491138,3.79186101 Z" id="s" fill="#FFFFFF"></path>
                </g>
                <rect id="Rectangle-2" stroke="#4C4C4C" fill="#EFB135" sketch:type="MSShapeGroup" x="27.761194" y="9.76923077" width="32.238806" height="23.3333333" rx="2"></rect>
                <path d="M38.6333955,13.0249713 L38.6333955,13.9257409 L36.3596082,13.9257409 L36.3596082,14.2755543 L38.9132463,14.2755543 L38.9132463,15.1938146 L37.83757,15.1938146 L37.6364272,15.648572 L38.6333955,15.648572 L38.6333955,16.5493416 L36.4208256,16.5493416 L36.4208256,16.8991551 L38.5284515,16.8991551 L38.5284515,17.8174153 L36.4208256,17.8174153 L36.4208256,18.1672288 L38.9132463,18.1672288 L38.9132463,19.0679983 L36.4208256,19.0679983 L36.4208256,19.6364452 L35.1702425,19.6364452 L35.1702425,19.0679983 L32.7827659,19.0679983 L32.7827659,18.1672288 L35.1702425,18.1672288 L35.1702425,17.8174153 L33.1675606,17.8174153 L33.1675606,16.8991551 L35.1702425,16.8991551 L35.1702425,16.5493416 L33.0626166,16.5493416 L33.0626166,15.648572 L33.8496968,15.648572 L33.6835354,15.1938146 L32.7827659,15.1938146 L32.7827659,14.2755543 L35.0915345,14.2755543 L35.0915345,13.9257409 L33.0626166,13.9257409 L33.0626166,13.0249713 L35.0915345,13.0249713 L35.0915345,12.6664125 L36.3596082,12.6664125 L36.3596082,13.0249713 L38.6333955,13.0249713 Z M35.0740438,15.648572 L36.4120802,15.648572 L36.6132229,15.1938146 L34.9078825,15.1938146 L35.0740438,15.648572 Z M31.2086054,12.8413192 L32.5116604,12.8413192 L32.5116604,14.3105357 L31.2086054,14.3105357 L31.2086054,12.8413192 Z M31.2086054,14.7740385 L32.5116604,14.7740385 L32.5116604,16.2782362 L31.2086054,16.2782362 L31.2086054,14.7740385 Z M30.858792,16.7329937 L32.4679338,16.7329937 L32.4679338,19.1029797 C32.5728783,19.5460789 32.8060849,19.7676252 33.1675606,19.7676252 L38.9482276,19.7676252 L38.9482276,20.7558482 L32.7477845,20.7558482 C32.6311795,20.7558482 32.4708499,20.6625655 32.266791,20.4759974 C31.8703338,20.6858865 31.3893452,20.7908295 30.8238106,20.7908295 L30.8238106,19.8375879 C31.1736258,19.7909459 31.3485308,19.6976632 31.3485308,19.5577372 L31.3485308,17.887378 L30.858792,17.887378 L30.858792,16.7329937 Z M43.2771688,12.6664125 L44.7463853,12.6664125 L44.0904851,14.8090198 L45.1661614,14.8090198 L46.4954524,19.2166691 C46.5362642,19.4207279 46.6324619,19.5227558 46.7840485,19.5227558 L47.9034515,19.5227558 L47.9034515,20.6771401 L46.119403,20.6771401 C45.7112853,20.6771401 45.454758,20.4585089 45.3498134,20.02124 L43.9418144,15.2637773 L42.5338153,19.8026066 C42.3763985,20.3856319 42.0878053,20.6771401 41.6680271,20.6771401 L39.8489972,20.6771401 L39.8489972,19.4877745 L40.9334188,19.4877745 C41.0558542,19.4877745 41.1520519,19.3915767 41.2220149,19.1991784 L43.2771688,12.6664125 Z M55.5556203,12.7363752 L56.7887127,12.7363752 C56.7479009,13.2086257 56.6371278,13.5409451 56.4563899,13.7333435 C56.2814823,13.9140813 56.0307852,14.0044489 55.704291,14.0044489 L53.5004664,14.0044489 L53.5004664,14.3892437 L56.7887127,14.3892437 L56.7887127,15.359976 L53.5004664,15.359976 L53.5004664,16.9341364 L52.1274487,16.9341364 L52.1274487,15.359976 L48.8392024,15.359976 L48.8392024,14.3892437 L52.1274487,14.3892437 L52.1274487,14.0044489 L48.9528918,14.0044489 L48.9528918,13.0249713 L55.1708256,13.0249713 C55.3515634,13.0249713 55.479827,12.9287736 55.5556203,12.7363752 L55.5556203,12.7363752 Z M50.4920709,15.648572 L51.8475979,15.648572 L51.2966418,16.505615 C51.1742065,16.6980133 50.9730658,16.794211 50.6932136,16.794211 L48.8741838,16.794211 L48.8741838,15.9284228 L50.1772388,15.9284228 C50.2413716,15.9284228 50.2880129,15.9051021 50.3171642,15.8584601 L50.4920709,15.648572 Z M53.8152985,15.648572 L55.1708256,15.648572 L55.3020056,15.8584601 C55.3311569,15.9051021 55.3807133,15.9284228 55.4506763,15.9284228 L56.7887127,15.9284228 L56.7887127,16.794211 L54.7860308,16.794211 C54.5994627,16.794211 54.4391331,16.6980133 54.3050373,16.505615 L53.8152985,15.648572 Z M48.8741838,17.1790058 L56.5088619,17.1790058 L56.5088619,18.2022101 L55.6693097,18.6482222 L56.823694,18.6482222 L56.823694,20.0562213 C56.823694,20.5226415 56.4622238,20.7558482 55.7392724,20.7558482 L52.0662313,20.7558482 L52.0662313,19.8026066 L55.389459,19.8026066 C55.5235548,19.8026066 55.5906017,19.7705406 55.5906017,19.7064079 L55.5906017,19.4527931 L54.1651119,19.4527931 L54.1651119,18.6482222 L55.0046642,18.1322474 L51.3228778,18.1322474 L50.911847,19.9512773 C50.7777512,20.4876605 50.4483468,20.7558482 49.9236241,20.7558482 L48.8741838,20.7558482 L48.8741838,19.7413892 L49.5038479,19.7413892 C49.620453,19.7413892 49.7166507,19.6218708 49.792444,19.3828304 L50.0722948,18.1322474 L48.8741838,18.1322474 L48.8741838,17.1790058 Z M31.8120336,21.7363752 L33.0975979,21.7363752 L32.8964552,22.2698407 L34.8204291,22.2698407 L34.9253731,21.7363752 L36.1759562,21.7363752 L36.0797575,22.2698407 L38.9132463,22.2698407 L38.9132463,23.0744116 L35.9748134,23.0744116 L35.9748134,23.4941877 L38.7295942,23.4941877 L38.7295942,24.2900133 L35.9748134,24.2900133 L35.9748134,24.6748081 L38.7295942,24.6748081 L38.7295942,25.4793789 L35.9748134,25.4793789 L35.9748134,25.8291924 L38.9482276,25.8291924 L38.9482276,26.6687446 L32.5816231,26.6687446 L32.5816231,26.8523967 L31.3922575,26.8523967 L31.3922575,23.7740385 L30.9287547,23.7740385 L30.9287547,22.6546355 L31.3485308,22.6546355 C31.4534753,22.6546355 31.5263524,22.5817584 31.5671642,22.4360021 L31.8120336,21.7363752 Z M32.5816231,25.8291924 L34.7854478,25.8291924 L34.7854478,25.4793789 L32.5816231,25.4793789 L32.5816231,25.8291924 Z M34.7854478,24.6748081 L34.7854478,24.2900133 L32.5816231,24.2900133 L32.5816231,24.6748081 L34.7854478,24.6748081 Z M34.7854478,23.4941877 L34.7854478,23.0744116 L32.5816231,23.0744116 L32.5816231,23.4941877 L34.7854478,23.4941877 Z M38.8782649,27.1322474 L38.8782649,28.137961 L35.520056,28.137961 L35.520056,29.7908295 L34.2869636,29.7908295 L34.2869636,28.137961 L30.963736,28.137961 L30.963736,27.1322474 L34.2869636,27.1322474 L34.2869636,26.8523967 L35.520056,26.8523967 L35.520056,27.1322474 L38.8782649,27.1322474 Z M32.5816231,28.3565944 L33.9721315,28.3565944 L33.307486,29.3797987 C33.1617297,29.6071786 32.9197778,29.7208668 32.5816231,29.7208668 L30.963736,29.7208668 L30.963736,28.8375879 L32.0481576,28.8375879 C32.170593,28.8375879 32.2580454,28.8026069 32.3105177,28.7326439 L32.5816231,28.3565944 Z M35.9048507,28.3565944 L37.2953591,28.3565944 L37.5577192,28.7326439 C37.6101915,28.8026069 37.7122194,28.8375879 37.863806,28.8375879 L38.9132463,28.8375879 L38.9132463,29.7208668 L37.1641791,29.7208668 C36.9134782,29.7208668 36.7035923,29.6071786 36.5345149,29.3797987 L35.9048507,28.3565944 Z M42.2364739,22.0249713 L42.2364739,22.9607222 L40.0676306,22.9607222 L40.0676306,22.0249713 L42.2364739,22.0249713 Z M41.1870336,23.3892437 L42.4026353,23.3892437 L41.8341884,24.5961 C41.7117531,24.8642917 41.5076973,24.9983855 41.2220149,24.9983855 L39.9539412,24.9983855 L39.9539412,24.1588332 L40.7672575,24.1588332 C40.8547113,24.1588332 40.9188431,24.0976165 40.9596549,23.9751812 L41.1870336,23.3892437 Z M43.3121502,21.7363752 L44.5102612,21.7363752 L44.3440998,22.0512073 L47.7197994,22.0512073 L47.4836754,23.5291691 L46.2855644,23.5291691 L46.4342351,22.8907595 L43.9243237,22.8907595 L43.8980877,22.9432316 C43.7698221,23.2172535 43.5511909,23.3542623 43.2421875,23.3542623 L42.4376166,23.3542623 L42.4376166,22.5059648 L42.78743,22.5059648 C42.9098654,22.5059648 42.9973178,22.4476631 43.0497901,22.3310581 L43.3121502,21.7363752 Z M44.0467584,23.1706103 L45.3148321,23.1706103 L45.13118,23.5291691 L45.9007696,23.5291691 L46.145639,23.9751812 C46.192281,24.0742955 46.2884787,24.1238519 46.4342351,24.1238519 L47.7197994,24.1238519 L47.7197994,24.9634041 L45.8308069,24.9634041 C45.6150875,24.9634041 45.4343524,24.8438857 45.2885961,24.6048454 L44.9300373,23.9314545 L44.6239506,24.543628 C44.472364,24.8468012 44.2245819,24.9983855 43.880597,24.9983855 L42.3414179,24.9983855 L42.3414179,24.1588332 L43.3908582,24.1588332 C43.5366145,24.1588332 43.6415575,24.080126 43.7056903,23.9227092 L44.0467584,23.1706103 Z M40.3037547,25.1645469 L47.369986,25.1645469 L47.369986,28.0679983 C47.369986,28.4236438 47.1863358,28.6014638 46.8190299,28.6014638 L40.3037547,28.6014638 L40.3037547,25.1645469 Z M46.145639,27.901837 C46.2097718,27.901837 46.2447528,27.8172996 46.250583,27.6482222 L41.4231576,27.6482222 L41.4231576,27.901837 L46.145639,27.901837 Z M41.4231576,26.9835767 L46.250583,26.9835767 L46.250583,26.782434 L41.4231576,26.782434 L41.4231576,26.9835767 Z M41.4231576,26.1177885 L46.250583,26.1177885 L46.250583,25.8641737 L41.4231576,25.8641737 L41.4231576,26.1177885 Z M41.6068097,28.7676252 L43.0410448,28.7676252 C42.7903439,29.2107244 42.5513071,29.4876573 42.3239272,29.5984321 C42.0848869,29.7266977 41.8108691,29.7908295 41.5018657,29.7908295 L39.9539412,29.7908295 L39.9539412,29.0912026 L41.1170709,29.0912026 C41.3094692,29.0912026 41.4727139,28.9833446 41.6068097,28.7676252 L41.6068097,28.7676252 Z M44.2566465,28.7676252 L45.6996269,28.7676252 L45.8220616,28.9600226 C45.8920246,29.0474764 46.011543,29.0912026 46.1806203,29.0912026 L47.7547808,29.0912026 L47.7547808,29.7908295 L45.6296642,29.7908295 C45.1399229,29.7908295 44.7930281,29.6275849 44.5889692,29.3010907 L44.2566465,28.7676252 Z M48.9091651,21.8063379 L51.8475979,21.8063379 L51.8475979,28.8725692 C51.8475979,29.4381038 51.5910707,29.7208668 51.0780084,29.7208668 L48.9091651,29.7208668 L48.9091651,21.8063379 Z M50.5620336,28.7064079 C50.6961294,28.7064079 50.7631763,28.5985498 50.7631763,28.3828304 L50.7631763,22.8207969 L49.9935868,22.8207969 L49.9935868,28.7064079 L50.5620336,28.7064079 Z M53.4305037,22.7595795 L53.4305037,26.1440245 L54.0164412,26.1440245 L54.0164412,22.7595795 L53.4305037,22.7595795 Z M55.1358442,22.7595795 L55.1358442,26.1440245 L55.520639,26.1440245 C55.6663953,26.1440245 55.7392724,26.0740625 55.7392724,25.9341364 L55.7392724,22.7595795 L55.1358442,22.7595795 Z M53.4305037,27.1672288 L53.4305037,28.5577372 C53.4305037,28.6801725 53.4975506,28.7413892 53.6316465,28.7413892 L56.7887127,28.7413892 L56.7887127,29.7558482 L53.045709,29.7558482 C52.5268164,29.7558482 52.2673741,29.4876605 52.2673741,28.9512773 L52.2673741,21.7713566 L56.823694,21.7713566 L56.823694,26.5025832 C56.823694,26.9456825 56.5904874,27.1672288 56.1240672,27.1672288 L53.4305037,27.1672288 Z" id="達人秀" fill="#FFFFFF" sketch:type="MSShapeGroup"></path>
                <g id="$-copy-3" transform="translate(19.201509, 22.558250) rotate(-14.000000) translate(-19.201509, -22.558250) translate(12.701509, 16.558250)" sketch:type="MSShapeGroup">
                    <ellipse id="Oval-1-Copy" fill="#EFB135" cx="6.48530319" cy="6.32793973" rx="5.8291874" ry="5.63301282"></ellipse>
                    <path d="M10.5929525,8.72213898 C10.5929525,9.47511616 10.133827,9.8515991 9.21556215,9.8515991 L3.27900956,9.8515991 L3.27900956,7.79928742 L8.43044963,7.79928742 L8.43044963,7.23455736 L4.28450455,7.23455736 C3.83455477,7.23455736 3.53612317,7.19323606 3.3892008,7.11059222 C3.14126929,6.97285249 3.01730539,6.68819466 3.01730539,6.25661018 L3.01730539,4.78280246 C3.01730539,3.99309469 3.42133586,3.59824672 4.22940893,3.59824672 L9.55990975,3.59824672 L9.55990975,5.37508033 L5.01452146,5.37508033 L5.01452146,6.14641895 L9.24310996,6.14641895 C10.1430095,6.14641895 10.5929525,6.54585817 10.5929525,7.34474859 L10.5929525,8.72213898 Z" id="s" fill="#FFFFFF"></path>
                </g>
            </g>
        </g>
    </g>
</svg>